<svg width="38" height="38" viewBox="0 0 38 38" fill="none" xmlns="http://www.w3.org/2000/svg">
<g id="Group 512766">
<rect id="Rectangle 275" x="0.5" y="0.5" width="37" height="37" rx="5.5" stroke="white"/>
<path id="Instagram" d="M19.0002 12.8016C21.0484 12.8016 21.3044 12.8016 22.1365 12.869C24.2488 12.9364 25.2089 14.0144 25.2729 16.1704C25.3369 17.0463 25.3369 17.2484 25.3369 19.4044C25.3369 21.5605 25.3369 21.83 25.2729 22.6385C25.2089 24.7945 24.1848 25.8725 22.1365 25.9399C21.3044 26.0073 21.1124 26.0073 19.0002 26.0073C16.952 26.0073 16.6959 26.0073 15.9278 25.9399C13.8156 25.8725 12.8555 24.7945 12.7915 22.6385C12.7275 21.7626 12.7275 21.5605 12.7275 19.4044C12.7275 17.2484 12.7275 16.9789 12.7915 16.1704C12.8555 14.0144 13.8796 12.9364 15.9278 12.869C16.6959 12.8016 16.952 12.8016 19.0002 12.8016ZM19.0002 11.3193C16.888 11.3193 16.6319 11.3193 15.8638 11.3867C13.0475 11.5215 11.5114 13.1385 11.3833 16.103C11.3193 16.9115 11.3193 17.181 11.3193 19.4044C11.3193 21.6278 11.3193 21.8973 11.3833 22.7059C11.5114 25.6704 13.0475 27.2874 15.8638 27.4222C16.6319 27.4895 16.888 27.4895 19.0002 27.4895C21.1124 27.4895 21.3684 27.4895 22.1365 27.4222C24.9528 27.2874 26.489 25.6704 26.617 22.7059C26.681 21.8973 26.681 21.6278 26.681 19.4044C26.681 17.181 26.681 16.9115 26.617 16.103C26.489 13.1385 24.9528 11.5215 22.1365 11.3867C21.3684 11.3193 21.1124 11.3193 19.0002 11.3193ZM19.0002 15.2271C16.8239 15.2271 15.0317 17.1137 15.0317 19.4044C15.0317 21.6952 16.8239 23.5817 19.0002 23.5817C21.1764 23.5817 22.9686 21.6952 22.9686 19.4044C22.9686 17.1137 21.1764 15.2271 19.0002 15.2271ZM19.0002 22.0995C17.592 22.0995 16.4399 20.8867 16.4399 19.4044C16.4399 17.9222 17.592 16.7094 19.0002 16.7094C20.4083 16.7094 21.5605 17.9222 21.5605 19.4044C21.5605 20.8867 20.4083 22.0995 19.0002 22.0995ZM23.0966 14.1491C22.5846 14.1491 22.2005 14.5534 22.2005 15.0924C22.2005 15.6314 22.5846 16.0356 23.0966 16.0356C23.6087 16.0356 23.9927 15.6314 23.9927 15.0924C23.9927 14.5534 23.6087 14.1491 23.0966 14.1491Z" fill="white"/>
</g>
</svg>
