<svg width="38" height="38" viewBox="0 0 38 38" fill="none" xmlns="http://www.w3.org/2000/svg">
<g id="Group 512768">
<rect id="Rectangle 277" x="0.5" y="0.5" width="37" height="37" rx="5.5" stroke="white"/>
<path id="Linkedin" d="M13.4078 13.077C13.4078 14.0612 12.5926 14.8346 11.555 14.8346C10.5174 14.8346 9.70215 14.0612 9.70215 13.077C9.70215 12.0927 10.5174 11.3193 11.555 11.3193C12.5926 11.3193 13.4078 12.0927 13.4078 13.077ZM13.4078 16.2407H9.70215V27.4895H13.4078V16.2407ZM19.3369 16.2407H15.6312V27.4895H19.3369V21.5839C19.3369 18.2796 23.7837 17.9983 23.7837 21.5839V27.4895H27.4894V20.3887C27.4894 14.8346 20.8933 15.0455 19.3369 17.7874V16.2407Z" fill="white"/>
</g>
</svg>
